<?xml version="1.0" encoding="UTF-8"?>
<!DOCTYPE svg PUBLIC "-//W3C//DTD SVG 1.1//EN" "http://www.w3.org/Graphics/SVG/1.1/DTD/svg11.dtd">
<svg version="1.1" xmlns="http://www.w3.org/2000/svg" xmlns:xlink="http://www.w3.org/1999/xlink" x="0px" y="0px" width="1200" height="800" viewBox="0, 0, 1200, 800">
  <g id="Background">
    <rect x="0" y="0" width="1200" height="800" fill="#000000" fill-opacity="0"/>
  </g>
  <g id="Layer 1">
    <g>
      <path d="M90.5,660.5 C73.931,660.5 60.5,647.069 60.5,630.5 C60.5,613.931 73.931,600.5 90.5,600.5 C107.069,600.5 120.5,613.931 120.5,630.5 C120.5,647.069 107.069,660.5 90.5,660.5 z" fill="#FFFFFF"/>
      <path d="M90.5,660.5 C73.931,660.5 60.5,647.069 60.5,630.5 C60.5,613.931 73.931,600.5 90.5,600.5 C107.069,600.5 120.5,613.931 120.5,630.5 C120.5,647.069 107.069,660.5 90.5,660.5 z" fill-opacity="0" stroke="#294270" stroke-width="4"/>
    </g>
    <g>
      <path d="M180.5,660.5 C163.931,660.5 150.5,647.069 150.5,630.5 C150.5,613.931 163.931,600.5 180.5,600.5 C197.069,600.5 210.5,613.931 210.5,630.5 C210.5,647.069 197.069,660.5 180.5,660.5 z" fill="#294270"/>
      <path d="M180.5,660.5 C163.931,660.5 150.5,647.069 150.5,630.5 C150.5,613.931 163.931,600.5 180.5,600.5 C197.069,600.5 210.5,613.931 210.5,630.5 C210.5,647.069 197.069,660.5 180.5,660.5 z" fill-opacity="0" stroke="#294270" stroke-width="4"/>
    </g>
    <g>
      <path d="M270.5,660.5 C253.931,660.5 240.5,647.069 240.5,630.5 C240.5,613.931 253.931,600.5 270.5,600.5 C287.069,600.5 300.5,613.931 300.5,630.5 C300.5,647.069 287.069,660.5 270.5,660.5 z" fill="#294270"/>
      <path d="M270.5,660.5 C253.931,660.5 240.5,647.069 240.5,630.5 C240.5,613.931 253.931,600.5 270.5,600.5 C287.069,600.5 300.5,613.931 300.5,630.5 C300.5,647.069 287.069,660.5 270.5,660.5 z" fill-opacity="0" stroke="#294270" stroke-width="4"/>
    </g>
    <g>
      <path d="M450.5,660.5 C433.931,660.5 420.5,647.069 420.5,630.5 C420.5,613.931 433.931,600.5 450.5,600.5 C467.069,600.5 480.5,613.931 480.5,630.5 C480.5,647.069 467.069,660.5 450.5,660.5 z" fill="#FFFFFF"/>
      <path d="M450.5,660.5 C433.931,660.5 420.5,647.069 420.5,630.5 C420.5,613.931 433.931,600.5 450.5,600.5 C467.069,600.5 480.5,613.931 480.5,630.5 C480.5,647.069 467.069,660.5 450.5,660.5 z" fill-opacity="0" stroke="#294270" stroke-width="4"/>
    </g>
    <g>
      <path d="M540.5,660.5 C523.931,660.5 510.5,647.069 510.5,630.5 C510.5,613.931 523.931,600.5 540.5,600.5 C557.069,600.5 570.5,613.931 570.5,630.5 C570.5,647.069 557.069,660.5 540.5,660.5 z" fill="#FFFFFF"/>
      <path d="M540.5,660.5 C523.931,660.5 510.5,647.069 510.5,630.5 C510.5,613.931 523.931,600.5 540.5,600.5 C557.069,600.5 570.5,613.931 570.5,630.5 C570.5,647.069 557.069,660.5 540.5,660.5 z" fill-opacity="0" stroke="#294270" stroke-width="4"/>
    </g>
    <g>
      <path d="M630.5,660.5 C613.931,660.5 600.5,647.069 600.5,630.5 C600.5,613.931 613.931,600.5 630.5,600.5 C647.069,600.5 660.5,613.931 660.5,630.5 C660.5,647.069 647.069,660.5 630.5,660.5 z" fill="#FFFFFF"/>
      <path d="M630.5,660.5 C613.931,660.5 600.5,647.069 600.5,630.5 C600.5,613.931 613.931,600.5 630.5,600.5 C647.069,600.5 660.5,613.931 660.5,630.5 C660.5,647.069 647.069,660.5 630.5,660.5 z" fill-opacity="0" stroke="#294270" stroke-width="4"/>
    </g>
    <g>
      <path d="M810.5,660.5 C793.931,660.5 780.5,647.069 780.5,630.5 C780.5,613.931 793.931,600.5 810.5,600.5 C827.069,600.5 840.5,613.931 840.5,630.5 C840.5,647.069 827.069,660.5 810.5,660.5 z" fill="#FFFFFF"/>
      <path d="M810.5,660.5 C793.931,660.5 780.5,647.069 780.5,630.5 C780.5,613.931 793.931,600.5 810.5,600.5 C827.069,600.5 840.5,613.931 840.5,630.5 C840.5,647.069 827.069,660.5 810.5,660.5 z" fill-opacity="0" stroke="#294270" stroke-width="4"/>
    </g>
    <g>
      <path d="M900.5,660.5 C883.931,660.5 870.5,647.069 870.5,630.5 C870.5,613.931 883.931,600.5 900.5,600.5 C917.069,600.5 930.5,613.931 930.5,630.5 C930.5,647.069 917.069,660.5 900.5,660.5 z" fill="#294270"/>
      <path d="M900.5,660.5 C883.931,660.5 870.5,647.069 870.5,630.5 C870.5,613.931 883.931,600.5 900.5,600.5 C917.069,600.5 930.5,613.931 930.5,630.5 C930.5,647.069 917.069,660.5 900.5,660.5 z" fill-opacity="0" stroke="#294270" stroke-width="4"/>
    </g>
    <g>
      <path d="M990.5,660.5 C973.931,660.5 960.5,647.069 960.5,630.5 C960.5,613.931 973.931,600.5 990.5,600.5 C1007.069,600.5 1020.5,613.931 1020.5,630.5 C1020.5,647.069 1007.069,660.5 990.5,660.5 z" fill="#294270"/>
      <path d="M990.5,660.5 C973.931,660.5 960.5,647.069 960.5,630.5 C960.5,613.931 973.931,600.5 990.5,600.5 C1007.069,600.5 1020.5,613.931 1020.5,630.5 C1020.5,647.069 1007.069,660.5 990.5,660.5 z" fill-opacity="0" stroke="#294270" stroke-width="4"/>
    </g>
    <g>
      <path d="M270.5,420.5 C253.931,420.5 240.5,407.069 240.5,390.5 C240.5,373.931 253.931,360.5 270.5,360.5 C287.069,360.5 300.5,373.931 300.5,390.5 C300.5,407.069 287.069,420.5 270.5,420.5 z" fill="#FFFFFF"/>
      <path d="M270.5,420.5 C253.931,420.5 240.5,407.069 240.5,390.5 C240.5,373.931 253.931,360.5 270.5,360.5 C287.069,360.5 300.5,373.931 300.5,390.5 C300.5,407.069 287.069,420.5 270.5,420.5 z" fill-opacity="0" stroke="#294270" stroke-width="4"/>
    </g>
    <g>
      <path d="M360.5,420.5 C343.931,420.5 330.5,407.069 330.5,390.5 C330.5,373.931 343.931,360.5 360.5,360.5 C377.069,360.5 390.5,373.931 390.5,390.5 C390.5,407.069 377.069,420.5 360.5,420.5 z" fill="#FFFFFF"/>
      <path d="M360.5,420.5 C343.931,420.5 330.5,407.069 330.5,390.5 C330.5,373.931 343.931,360.5 360.5,360.5 C377.069,360.5 390.5,373.931 390.5,390.5 C390.5,407.069 377.069,420.5 360.5,420.5 z" fill-opacity="0" stroke="#294270" stroke-width="4"/>
    </g>
    <g>
      <path d="M450.5,420.5 C433.931,420.5 420.5,407.069 420.5,390.5 C420.5,373.931 433.931,360.5 450.5,360.5 C467.069,360.5 480.5,373.931 480.5,390.5 C480.5,407.069 467.069,420.5 450.5,420.5 z" fill="#294270"/>
      <path d="M450.5,420.5 C433.931,420.5 420.5,407.069 420.5,390.5 C420.5,373.931 433.931,360.5 450.5,360.5 C467.069,360.5 480.5,373.931 480.5,390.5 C480.5,407.069 467.069,420.5 450.5,420.5 z" fill-opacity="0" stroke="#294270" stroke-width="4"/>
    </g>
    <g>
      <path d="M810.5,420.5 C793.931,420.5 780.5,407.069 780.5,390.5 C780.5,373.931 793.931,360.5 810.5,360.5 C827.069,360.5 840.5,373.931 840.5,390.5 C840.5,407.069 827.069,420.5 810.5,420.5 z" fill="#294270"/>
      <path d="M810.5,420.5 C793.931,420.5 780.5,407.069 780.5,390.5 C780.5,373.931 793.931,360.5 810.5,360.5 C827.069,360.5 840.5,373.931 840.5,390.5 C840.5,407.069 827.069,420.5 810.5,420.5 z" fill-opacity="0" stroke="#294270" stroke-width="4"/>
    </g>
    <g>
      <path d="M900.5,420.5 C883.931,420.5 870.5,407.069 870.5,390.5 C870.5,373.931 883.931,360.5 900.5,360.5 C917.069,360.5 930.5,373.931 930.5,390.5 C930.5,407.069 917.069,420.5 900.5,420.5 z" fill="#294270"/>
      <path d="M900.5,420.5 C883.931,420.5 870.5,407.069 870.5,390.5 C870.5,373.931 883.931,360.5 900.5,360.5 C917.069,360.5 930.5,373.931 930.5,390.5 C930.5,407.069 917.069,420.5 900.5,420.5 z" fill-opacity="0" stroke="#294270" stroke-width="4"/>
    </g>
    <g>
      <path d="M990.5,420.5 C973.931,420.5 960.5,407.069 960.5,390.5 C960.5,373.931 973.931,360.5 990.5,360.5 C1007.069,360.5 1020.5,373.931 1020.5,390.5 C1020.5,407.069 1007.069,420.5 990.5,420.5 z" fill="#294270"/>
      <path d="M990.5,420.5 C973.931,420.5 960.5,407.069 960.5,390.5 C960.5,373.931 973.931,360.5 990.5,360.5 C1007.069,360.5 1020.5,373.931 1020.5,390.5 C1020.5,407.069 1007.069,420.5 990.5,420.5 z" fill-opacity="0" stroke="#294270" stroke-width="4"/>
    </g>
    <g>
      <path d="M540.5,180.5 C523.931,180.5 510.5,167.069 510.5,150.5 C510.5,133.931 523.931,120.5 540.5,120.5 C557.069,120.5 570.5,133.931 570.5,150.5 C570.5,167.069 557.069,180.5 540.5,180.5 z" fill="#FFFFFF"/>
      <path d="M540.5,180.5 C523.931,180.5 510.5,167.069 510.5,150.5 C510.5,133.931 523.931,120.5 540.5,120.5 C557.069,120.5 570.5,133.931 570.5,150.5 C570.5,167.069 557.069,180.5 540.5,180.5 z" fill-opacity="0" stroke="#294270" stroke-width="4"/>
    </g>
    <g>
      <path d="M630.5,180.5 C613.931,180.5 600.5,167.069 600.5,150.5 C600.5,133.931 613.931,120.5 630.5,120.5 C647.069,120.5 660.5,133.931 660.5,150.5 C660.5,167.069 647.069,180.5 630.5,180.5 z" fill="#294270"/>
      <path d="M630.5,180.5 C613.931,180.5 600.5,167.069 600.5,150.5 C600.5,133.931 613.931,120.5 630.5,120.5 C647.069,120.5 660.5,133.931 660.5,150.5 C660.5,167.069 647.069,180.5 630.5,180.5 z" fill-opacity="0" stroke="#294270" stroke-width="4"/>
    </g>
    <g>
      <path d="M720.5,180.5 C703.931,180.5 690.5,167.069 690.5,150.5 C690.5,133.931 703.931,120.5 720.5,120.5 C737.069,120.5 750.5,133.931 750.5,150.5 C750.5,167.069 737.069,180.5 720.5,180.5 z" fill="#294270"/>
      <path d="M720.5,180.5 C703.931,180.5 690.5,167.069 690.5,150.5 C690.5,133.931 703.931,120.5 720.5,120.5 C737.069,120.5 750.5,133.931 750.5,150.5 C750.5,167.069 737.069,180.5 720.5,180.5 z" fill-opacity="0" stroke="#294270" stroke-width="4"/>
    </g>
    <text transform="matrix(1, 0, 0, 1, 600, 52.5)">
      <tspan x="-190.556" y="13.5" font-family="Verdana-Bold" font-size="36" fill="#294270">checkio("wbb", 3)</tspan>
    </text>
    <g>
      <path d="M540.5,200.5 L380.707,324.783" fill-opacity="0" stroke="#294270" stroke-width="8" stroke-linecap="round"/>
      <path d="M376.287,319.1 L365.552,336.571 L385.128,330.466 z" fill="#294270" fill-opacity="1" stroke="#294270" stroke-width="8" stroke-opacity="1"/>
    </g>
    <g>
      <path d="M720.5,200.5 L880.293,324.783" fill-opacity="0" stroke="#294270" stroke-width="8" stroke-linecap="round"/>
      <path d="M875.872,330.466 L895.448,336.571 L884.713,319.1 z" fill="#294270" fill-opacity="1" stroke="#294270" stroke-width="8" stroke-opacity="1"/>
    </g>
    <g>
      <path d="M270.5,440.5 L194.343,558.966" fill-opacity="0" stroke="#294270" stroke-width="8" stroke-linecap="round"/>
      <path d="M188.287,555.072 L183.961,575.116 L200.4,562.859 z" fill="#294270" fill-opacity="1" stroke="#294270" stroke-width="8" stroke-opacity="1"/>
    </g>
    <g>
      <path d="M450.5,440.5 L526.657,558.966" fill-opacity="0" stroke="#294270" stroke-width="8" stroke-linecap="round"/>
      <path d="M520.6,562.859 L537.039,575.116 L532.713,555.072 z" fill="#294270" fill-opacity="1" stroke="#294270" stroke-width="8" stroke-opacity="1"/>
    </g>
    <g>
      <path d="M900.5,440.5 L900.5,554.9" fill-opacity="0" stroke="#294270" stroke-width="8" stroke-linecap="round"/>
      <path d="M893.3,554.9 L900.5,574.1 L907.7,554.9 z" fill="#294270" fill-opacity="1" stroke="#294270" stroke-width="8" stroke-opacity="1"/>
    </g>
    <text transform="matrix(1, 0, 0, 1, 411.996, 222.5)">
      <tspan x="-38.004" y="13.5" font-family="Verdana-Bold" font-size="36" fill="#294270">2/3</tspan>
    </text>
    <text transform="matrix(1, 0, 0, 1, 861.996, 222.5)">
      <tspan x="-38.004" y="13.5" font-family="Verdana-Bold" font-size="36" fill="#294270">1/3</tspan>
    </text>
    <text transform="matrix(1, 0, 0, 1, 600, 462.5)">
      <tspan x="-101.109" y="13.5" font-family="Verdana-Bold" font-size="36" fill="#294270">2/3 * 1/3</tspan>
    </text>
    <text transform="matrix(1, 0, 0, 1, 126.117, 462.5)">
      <tspan x="-101.109" y="13.5" font-family="Verdana-Bold" font-size="36" fill="#294270">2/3 * 2/3</tspan>
    </text>
    <text transform="matrix(1, 0, 0, 1, 1015.902, 462.5)">
      <tspan x="-75.902" y="13.5" font-family="Verdana-Bold" font-size="36" fill="#294270">1/3 * 1</tspan>
    </text>
    <text transform="matrix(1, 0, 0, 1, 126.117, 510)">
      <tspan x="-53.613" y="13.5" font-family="Verdana-Bold" font-size="36" fill="#294270">=4/9</tspan>
    </text>
    <text transform="matrix(1, 0, 0, 1, 593.613, 510)">
      <tspan x="-53.613" y="13.5" font-family="Verdana-Bold" font-size="36" fill="#294270">=2/9</tspan>
    </text>
    <text transform="matrix(1, 0, 0, 1, 1013.613, 510)">
      <tspan x="-53.613" y="13.5" font-family="Verdana-Bold" font-size="36" fill="#294270">=1/3</tspan>
    </text>
    <text transform="matrix(1, 0, 0, 1, 180, 697.88)">
      <tspan x="-101.109" y="13.5" font-family="Verdana-Bold" font-size="36" fill="#294270">4/9 * 1/3</tspan>
    </text>
    <text transform="matrix(1, 0, 0, 1, 360, 694.987)">
      <tspan x="-15.609" y="13.5" font-family="Verdana-Bold" font-size="36" fill="#294270">+</tspan>
    </text>
    <text transform="matrix(1, 0, 0, 1, 720, 694.987)">
      <tspan x="-15.609" y="13.5" font-family="Verdana-Bold" font-size="36" fill="#294270">+</tspan>
    </text>
    <text transform="matrix(1, 0, 0, 1, 540, 697.88)">
      <tspan x="-75.902" y="13.5" font-family="Verdana-Bold" font-size="36" fill="#294270">2/9 * 1</tspan>
    </text>
    <text transform="matrix(1, 0, 0, 1, 900, 697.88)">
      <tspan x="-101.109" y="13.5" font-family="Verdana-Bold" font-size="36" fill="#294270">1/3 * 1/3</tspan>
    </text>
    <text transform="matrix(1, 0, 0, 1, 600, 762.5)">
      <tspan x="-139.711" y="13.5" font-family="Verdana-Bold" font-size="36" fill="#294270">=13/27≈0.48</tspan>
    </text>
  </g>
  <defs/>
</svg>
