<?xml version="1.0" encoding="UTF-8"?>
<!DOCTYPE svg PUBLIC "-//W3C//DTD SVG 1.1//EN" "http://www.w3.org/Graphics/SVG/1.1/DTD/svg11.dtd">
<svg version="1.1" xmlns="http://www.w3.org/2000/svg" xmlns:xlink="http://www.w3.org/1999/xlink" x="0px" y="0px" width="128" height="128" viewBox="0, 0, 128, 128">
  <g id="Background">
    <rect x="0" y="0" width="128" height="128" fill="#000000" fill-opacity="0"/>
  </g>
  <g id="Background">
    <path d="M18.093,6 L109.907,6 C116.561,6 122,11.439 122,18.093 L122,109.907 C122,116.561 116.561,122 109.907,122 L18.093,122 C11.439,122 6,116.561 6,109.907 L6,18.093 C6,11.439 11.439,6 18.093,6" fill="#727272"/>
    <path d="M65.155,79.098 L97.563,60.634 L65.155,42.169 L32.744,60.634 z" fill="#727272"/>
    <path d="M19.915,37.004 L52.34,18.285 L65.302,41.828 L32.877,60.547 z" fill="#EBEDED"/>
    <path d="M78.458,19.253 L110.883,37.972 L96.973,60.968 L64.548,42.248 z" fill="#EBEDED"/>
    <path d="M64.991,38.91 C78.289,38.91 89.072,49.692 89.072,62.991 C89.072,76.29 78.289,87.073 64.991,87.073 C51.691,87.073 40.91,76.29 40.91,62.991 C40.91,49.692 51.691,38.91 64.991,38.91" fill="#727272"/>
    <path d="M64.991,42.44 C76.339,42.44 85.542,51.643 85.542,62.991 C85.542,74.34 76.339,83.543 64.991,83.543 C53.642,83.543 44.439,74.34 44.439,62.991 C44.439,51.643 53.642,42.44 64.991,42.44" fill="#EBECEC"/>
    <path d="M72.737,48.522 C77.893,51.29 81.4,56.729 81.4,62.991 C81.4,72.052 74.052,79.399 64.991,79.399 C58.83,79.399 53.459,76.003 50.655,70.978 C52.962,72.217 55.601,72.919 58.401,72.919 C67.462,72.919 74.809,65.571 74.809,56.51 C74.809,53.61 74.057,50.884 72.737,48.522" fill="#727272"/>
    <path d="M101.284,53.824 L101.284,95.17 L61.132,118.351 L61.132,77.007 z" fill="#727272"/>
    <path d="M13.495,33.69 L53.162,56.592 L78.883,91.666 L29.84,63.352 L10.443,36.904 z" fill="#727272"/>
    <path d="M18.193,40.937 L50.618,59.656 L64.963,79.217 L64.991,79.235 L97.398,60.525 L97.398,92.95 L64.996,111.657 L64.996,111.66 L64.991,111.66 L64.973,111.67 L64.973,111.647 L32.57,92.94 L32.57,60.538 L32.566,60.535 z" fill="#EBEDED"/>
  </g>
  <defs/>
</svg>
