<?xml version="1.0" encoding="UTF-8"?>
<!DOCTYPE svg PUBLIC "-//W3C//DTD SVG 1.1//EN" "http://www.w3.org/Graphics/SVG/1.1/DTD/svg11.dtd">
<svg version="1.1" xmlns="http://www.w3.org/2000/svg" xmlns:xlink="http://www.w3.org/1999/xlink" x="0px" y="0px" width="128" height="128" viewBox="0, 0, 128, 128">
  <g id="Background">
    <rect x="0" y="0" width="128" height="128" fill="#000000" fill-opacity="0"/>
  </g>
  <g id="Background">
    <path d="M18.093,6 L109.907,6 C116.561,6 122,11.439 122,18.093 L122,109.907 C122,116.561 116.561,122 109.907,122 L18.093,122 C11.439,122 6,116.561 6,109.907 L6,18.093 C6,11.439 11.439,6 18.093,6" fill="#737370"/>
    <path d="M63.999,33.922 C80.608,33.922 94.077,47.39 94.077,63.999 C94.077,80.608 80.608,94.075 63.999,94.075 C47.392,94.075 33.925,80.608 33.925,63.999 C33.925,47.39 47.392,33.922 63.999,33.922 z" fill="#EBEDED"/>
    <path d="M75.336,42.827 C77.266,46.28 78.369,50.272 78.369,54.514 C78.369,67.777 67.615,78.53 54.355,78.53 C50.257,78.53 46.396,77.5 43.019,75.691 C47.124,83.043 54.983,88.014 63.999,88.014 C77.259,88.014 88.015,77.26 88.015,63.999 C88.015,54.835 82.881,46.877 75.336,42.827" fill="#737370"/>
  </g>
  <defs/>
</svg>
